<svg xmlns="http://www.w3.org/2000/svg" xmlns:xlink="http://www.w3.org/1999/xlink" width="512" zoomAndPan="magnify" viewBox="0 0 384 383.999986" height="512" preserveAspectRatio="xMidYMid meet" version="1.0"><defs><clipPath id="39c38b2eff"><path d="M 5.292969 4.269531 L 378.792969 4.269531 L 378.792969 380 L 5.292969 380 Z M 5.292969 4.269531 " clip-rule="nonzero"/></clipPath></defs><g clip-path="url(#39c38b2eff)"><path fill="#ffffff" d="M 324.335938 59.019531 C 289.230469 23.859375 242.550781 4.460938 192.804688 4.460938 C 90.3125 4.460938 6.890625 87.90625 6.851562 190.492188 C 6.851562 223.277344 15.40625 255.300781 31.679688 283.5 L 5.292969 379.902344 L 103.875 354.023438 C 131.039062 368.859375 161.613281 376.65625 192.730469 376.671875 L 192.804688 376.671875 C 295.28125 376.671875 378.71875 293.207031 378.738281 190.640625 C 378.738281 140.925781 359.441406 94.199219 324.320312 59.019531 Z M 192.804688 345.261719 L 192.75 345.261719 C 165.027344 345.261719 137.808594 337.800781 114.078125 323.710938 L 108.4375 320.351562 L 49.9375 335.703125 L 65.539062 278.636719 L 61.867188 272.789062 C 46.390625 248.171875 38.226562 219.714844 38.246094 190.492188 C 38.285156 105.246094 107.621094 35.871094 192.859375 35.871094 C 234.144531 35.871094 272.941406 51.984375 302.128906 81.222656 C 331.3125 110.445312 347.363281 149.300781 347.34375 190.625 C 347.308594 275.886719 277.96875 345.261719 192.785156 345.261719 Z M 277.578125 229.460938 C 272.941406 227.140625 250.101562 215.890625 245.832031 214.347656 C 241.566406 212.789062 238.484375 212.027344 235.386719 216.667969 C 232.289062 221.328125 223.382812 231.796875 220.671875 234.898438 C 217.964844 238 215.257812 238.390625 210.597656 236.050781 C 205.960938 233.730469 190.988281 228.808594 173.230469 212.972656 C 159.425781 200.648438 150.09375 185.425781 147.382812 180.765625 C 144.675781 176.105469 147.105469 173.601562 149.425781 171.277344 C 151.503906 169.199219 154.0625 165.839844 156.402344 163.128906 C 158.71875 160.417969 159.5 158.46875 161.039062 155.371094 C 162.597656 152.269531 161.820312 149.558594 160.648438 147.21875 C 159.480469 144.898438 150.203125 122.007812 146.328125 112.710938 C 142.558594 103.648438 138.71875 104.875 135.878906 104.726562 C 133.171875 104.597656 130.074219 104.558594 126.972656 104.558594 C 123.875 104.558594 118.847656 105.710938 114.578125 110.371094 C 110.3125 115.03125 98.324219 126.28125 98.324219 149.152344 C 98.324219 172.023438 114.96875 194.132812 117.308594 197.25 C 119.625 200.351562 150.074219 247.300781 196.683594 267.441406 C 207.761719 272.230469 216.425781 275.089844 223.179688 277.242188 C 234.3125 280.789062 244.441406 280.289062 252.4375 279.082031 C 261.363281 277.746094 279.917969 267.832031 283.796875 256.972656 C 287.671875 246.113281 287.671875 236.8125 286.503906 234.863281 C 285.335938 232.914062 282.238281 231.761719 277.597656 229.421875 Z M 277.578125 229.460938 " fill-opacity="1" fill-rule="evenodd"/></g></svg>